<svg width="20" height="20" viewBox="0 0 20 20" fill="none" xmlns="http://www.w3.org/2000/svg">
<path d="M9.72783 6.01826C8.99783 6.01826 7.86782 5.18826 6.67782 5.21826C5.10782 5.23826 3.66782 6.12825 2.85782 7.53825C1.22782 10.3683 2.43782 14.5483 4.02782 16.8483C4.80782 17.9683 5.72782 19.2283 6.94782 19.1883C8.11782 19.1383 8.55783 18.4283 9.97783 18.4283C11.3878 18.4283 11.7878 19.1883 13.0278 19.1583C14.2878 19.1383 15.0878 18.0183 15.8578 16.8883C16.7478 15.5883 17.1178 14.3283 17.1378 14.2583C17.1078 14.2483 14.6878 13.3183 14.6578 10.5183C14.6378 8.17825 16.5678 7.05825 16.6578 7.00826C15.5578 5.39825 13.8678 5.21826 13.2778 5.17826C11.7378 5.05826 10.4478 6.01826 9.72783 6.01826ZM12.3278 3.65826C12.9778 2.87826 13.4078 1.78826 13.2878 0.708252C12.3578 0.748252 11.2378 1.32826 10.5678 2.10826C9.96783 2.79826 9.44783 3.90826 9.58783 4.96826C10.6178 5.04825 11.6778 4.43826 12.3278 3.65826Z" fill="black"/>
</svg>
