<svg width="20" height="20" viewBox="0 0 20 20" fill="none" xmlns="http://www.w3.org/2000/svg">
<path d="M2.57112 6.2577C3.97032 3.53418 6.84595 1.66675 10.1701 1.66675C12.4621 1.66675 14.3869 2.49254 15.8596 3.83721L13.4207 6.22736C12.5395 5.40162 11.4185 4.98114 10.1701 4.98114C7.95529 4.98114 6.08065 6.44706 5.41203 8.41675C5.24192 8.91675 5.14529 9.45083 5.14529 10.0001C5.14529 10.5493 5.24192 11.0834 5.41203 11.5834C6.08065 13.5531 7.95529 15.019 10.1701 15.019C11.3141 15.019 12.2882 14.7236 13.0497 14.2236C13.9502 13.6327 14.5493 12.7501 14.7464 11.7084H10.1701V8.48491H18.1787C18.2793 9.03033 18.3333 9.59858 18.3333 10.1895C18.3333 12.7273 17.4057 14.8637 15.7977 16.3145C14.3908 17.5872 12.466 18.3334 10.1701 18.3334C6.84595 18.3334 3.97032 16.466 2.57112 13.7425C1.99522 12.6175 1.66667 11.3447 1.66667 10.0001C1.66667 8.65541 1.99522 7.38267 2.57112 6.2577Z" fill="black"/>
</svg>
