<svg width="18" height="19" viewBox="0 0 18 19" fill="none" xmlns="http://www.w3.org/2000/svg">
<path d="M9.76089 15.2301C9.29131 14.9537 8.70878 14.9537 8.2392 15.2301L4.46505 17.4514C4.09485 17.6693 3.64037 17.3498 3.72013 16.9277L4.59153 12.3164C4.68499 11.8219 4.52417 11.3134 4.16331 10.9625L0.841496 7.73251C0.540806 7.44013 0.712023 6.92976 1.1282 6.87788L5.53151 6.32892C6.05594 6.26354 6.50727 5.92701 6.71958 5.44304L8.54216 1.2884C8.71713 0.889549 9.28295 0.889549 9.45792 1.2884L11.2805 5.44303C11.4928 5.92701 11.9441 6.26354 12.4685 6.32893L16.8718 6.87788C17.288 6.92976 17.4592 7.44013 17.1585 7.73251L13.8368 10.9625C13.4759 11.3134 13.3151 11.8219 13.4085 12.3164L14.2799 16.9277C14.3597 17.3498 13.9052 17.6693 13.535 17.4514L9.76089 15.2301Z" fill="black" stroke="black" stroke-linejoin="round"/>
</svg>
