<svg width="376" height="407" viewBox="0 0 376 407" fill="none" xmlns="http://www.w3.org/2000/svg">
<path d="M284.471 96.7184H282.307V35.4567C282.307 26.053 278.69 17.0344 272.253 10.385C265.815 3.73562 257.084 1.18656e-05 247.98 1.27329e-10H122.326C117.819 -1.24847e-05 113.355 0.91709 109.19 2.69894C105.026 4.48079 101.242 7.0925 98.054 10.3849C94.8665 13.6774 92.338 17.5861 90.613 21.8879C88.8879 26.1897 88 30.8003 88 35.4566V371.543C88 376.2 88.8879 380.81 90.6129 385.112C92.338 389.414 94.8665 393.323 98.0539 396.615C101.241 399.907 105.026 402.519 109.19 404.301C113.355 406.083 117.819 407 122.326 407H247.98C257.084 407 265.815 403.264 272.252 396.615C278.69 389.966 282.306 380.947 282.306 371.543V140.326H284.471L284.471 96.7184Z" fill="#3F3D56"/>
<path d="M248.893 9H232.491C233.246 10.9102 233.534 12.9826 233.33 15.0348C233.126 17.0869 232.437 19.0558 231.323 20.768C230.209 22.4802 228.704 23.8832 226.942 24.8533C225.179 25.8234 223.213 26.3309 221.215 26.331H149.23C147.233 26.3309 145.266 25.8234 143.504 24.8533C141.741 23.8832 140.237 22.4803 139.123 20.7681C138.009 19.0559 137.319 17.0869 137.116 15.0348C136.912 12.9826 137.2 10.9102 137.954 9H122.635C115.836 9 109.316 11.7897 104.508 16.7554C99.7008 21.7211 97 28.456 97 35.4786V371.072C97 374.549 97.6631 377.993 98.9513 381.205C100.24 384.418 102.128 387.337 104.508 389.795C106.889 392.254 109.714 394.205 112.825 395.535C115.935 396.866 119.268 397.551 122.635 397.551H248.893C252.26 397.551 255.593 396.866 258.703 395.535C261.813 394.205 264.639 392.254 267.02 389.796C269.4 387.337 271.288 384.418 272.577 381.205C273.865 377.993 274.528 374.549 274.528 371.072V35.4786C274.528 32.0014 273.865 28.5582 272.577 25.3457C271.288 22.1331 269.4 19.2141 267.02 16.7554C264.639 14.2966 261.813 12.3462 258.703 11.0156C255.593 9.68488 252.26 9 248.893 9Z" fill="white"/>
<path d="M375.98 234H208.88V290.662H215.209V305.482L229.556 290.662H375.98V234Z" fill="#6C63FF"/>
<path d="M303.463 253.188H227.478V255.57H303.463V253.188Z" fill="white"/>
<path d="M359.913 261.428H227.478V263.81H359.913V261.428Z" fill="white"/>
<path d="M359.783 269.667H227.478V272.049H359.783V269.667Z" fill="white"/>
<path d="M215.151 312.942C225.176 312.942 233.302 312.142 233.302 311.156C233.302 310.17 225.176 309.37 215.151 309.37C205.127 309.37 197 310.17 197 311.156C197 312.142 205.127 312.942 215.151 312.942Z" fill="#E6E6E6"/>
<path d="M0 163H147.213V212.919H141.636V225.975L128.997 212.919H0V163Z" fill="#6C63FF"/>
<path d="M139.102 233.839C151.66 233.839 161.841 232.838 161.841 231.602C161.841 230.367 151.66 229.365 139.102 229.365C126.543 229.365 116.362 230.367 116.362 231.602C116.362 232.838 126.543 233.839 139.102 233.839Z" fill="#E6E6E6"/>
<path d="M79.9414 183H13V185.098H79.9414V183Z" fill="white"/>
<path d="M129.673 190.259H13V192.357H129.673V190.259Z" fill="white"/>
<path d="M129.559 197.518H13V199.616H129.559V197.518Z" fill="white"/>
</svg>
