<svg width="523" height="407" viewBox="0 0 523 407" fill="none" xmlns="http://www.w3.org/2000/svg">
<g clip-path="url(#clip0_33_10)">
<path d="M393.602 96.7184H391.437V35.4567C391.437 26.053 387.82 17.0344 381.383 10.385C374.946 3.73562 366.215 1.18656e-05 357.111 1.27466e-10H231.457C226.949 -1.24847e-05 222.485 0.91709 218.321 2.69894C214.156 4.48079 210.372 7.0925 207.184 10.3849C203.997 13.6774 201.468 17.5861 199.743 21.8879C198.018 26.1897 197.13 30.8003 197.13 35.4566V371.543C197.13 376.2 198.018 380.81 199.743 385.112C201.468 389.414 203.997 393.323 207.184 396.615C210.372 399.907 214.156 402.519 218.321 404.301C222.485 406.083 226.949 407 231.457 407H357.11C366.214 407 374.945 403.264 381.383 396.615C387.82 389.966 391.437 380.947 391.437 371.543V140.326H393.602L393.602 96.7184Z" fill="#3F3D56"/>
<path d="M358.495 9.22461H342.093C342.848 11.1348 343.136 13.2072 342.932 15.2594C342.728 17.3115 342.039 19.2804 340.925 20.9926C339.811 22.7048 338.306 24.1078 336.544 25.0779C334.781 26.048 332.815 26.5555 330.817 26.5556H258.832C256.835 26.5555 254.868 26.048 253.106 25.0779C251.343 24.1078 249.839 22.7049 248.725 20.9927C247.611 19.2805 246.921 17.3116 246.718 15.2594C246.514 13.2072 246.802 11.1348 247.556 9.22461H232.237C225.438 9.22461 218.918 12.0143 214.11 16.98C209.303 21.9457 206.602 28.6806 206.602 35.7032V371.297C206.602 374.774 207.265 378.217 208.553 381.43C209.842 384.642 211.73 387.561 214.11 390.02C216.491 392.479 219.317 394.429 222.427 395.76C225.537 397.091 228.87 397.775 232.237 397.775H358.495C361.862 397.775 365.195 397.091 368.305 395.76C371.416 394.429 374.241 392.479 376.622 390.02C379.002 387.561 380.89 384.642 382.179 381.43C383.467 378.217 384.13 374.774 384.13 371.297V35.7032C384.13 32.226 383.467 28.7828 382.179 25.5703C380.89 22.3577 379.002 19.4388 376.622 16.98C374.241 14.5212 371.416 12.5708 368.305 11.2402C365.195 9.90949 361.862 9.2246 358.495 9.22461Z" fill="white"/>
<path d="M321.52 154.745C334.078 154.745 344.259 153.744 344.259 152.508C344.259 151.273 334.078 150.271 321.52 150.271C308.961 150.271 298.781 151.273 298.781 152.508C298.781 153.744 308.961 154.745 321.52 154.745Z" fill="#E6E6E6"/>
<path d="M523 55.8499H313.663V126.834H321.593V145.4L339.566 126.834H523V55.8499Z" fill="#6C63FF"/>
<path d="M432.154 79.8879H336.963V82.8719H432.154V79.8879Z" fill="white"/>
<path d="M502.873 90.2102H336.963V93.1941H502.873V90.2102Z" fill="white"/>
<path d="M502.71 100.532H336.963V103.516H502.71V100.532Z" fill="white"/>
<path d="M469.52 269.948H302.42V326.61H308.75V341.43L323.097 326.61H469.52V269.948Z" fill="#6C63FF"/>
<path d="M397.003 289.136H321.018V291.518H397.003V289.136Z" fill="white"/>
<path d="M453.453 297.376H321.018V299.758H453.453V297.376Z" fill="white"/>
<path d="M453.324 305.615H321.018V307.997H453.324V305.615Z" fill="white"/>
<path d="M308.692 348.89C318.716 348.89 326.843 348.09 326.843 347.104C326.843 346.118 318.716 345.318 308.692 345.318C298.667 345.318 290.54 346.118 290.54 347.104C290.54 348.09 298.667 348.89 308.692 348.89Z" fill="#E6E6E6"/>
<path d="M258.717 237.512C271.275 237.512 281.456 236.511 281.456 235.275C281.456 234.04 271.275 233.038 258.717 233.038C246.158 233.038 235.977 234.04 235.977 235.275C235.977 236.511 246.158 237.512 258.717 237.512Z" fill="#E6E6E6"/>
<path d="M119.345 167.152H266.558V217.071H260.982V230.127L248.343 217.071H119.345V167.152Z" fill="#6C63FF"/>
<path d="M201.556 183.673H134.615V185.771H201.556V183.673Z" fill="white"/>
<path d="M251.288 190.932H134.615V193.031H251.288V190.932Z" fill="white"/>
<path d="M251.174 198.191H134.615V200.29H251.174V198.191Z" fill="white"/>
</g>
<defs>
<clipPath id="clip0_33_10">
<rect width="523" height="407" fill="white"/>
</clipPath>
</defs>
</svg>
