<svg width="133" height="19" viewBox="0 0 133 19" fill="none" xmlns="http://www.w3.org/2000/svg">
<path d="M7.20312 10.5117H2.82031L2.79688 8.09766H6.47656C7.125 8.09766 7.65625 8.01562 8.07031 7.85156C8.48438 7.67969 8.79297 7.43359 8.99609 7.11328C9.20703 6.78516 9.3125 6.38672 9.3125 5.91797C9.3125 5.38672 9.21094 4.95703 9.00781 4.62891C8.8125 4.30078 8.50391 4.0625 8.08203 3.91406C7.66797 3.76562 7.13281 3.69141 6.47656 3.69141H4.03906V18H0.523438V0.9375H6.47656C7.46875 0.9375 8.35547 1.03125 9.13672 1.21875C9.92578 1.40625 10.5938 1.69141 11.1406 2.07422C11.6875 2.45703 12.1055 2.94141 12.3945 3.52734C12.6836 4.10547 12.8281 4.79297 12.8281 5.58984C12.8281 6.29297 12.668 6.94141 12.3477 7.53516C12.0352 8.12891 11.5391 8.61328 10.8594 8.98828C10.1875 9.36328 9.30859 9.57031 8.22266 9.60938L7.20312 10.5117ZM7.05078 18H1.85938L3.23047 15.2578H7.05078C7.66797 15.2578 8.17188 15.1602 8.5625 14.9648C8.95312 14.7617 9.24219 14.4883 9.42969 14.1445C9.61719 13.8008 9.71094 13.4062 9.71094 12.9609C9.71094 12.4609 9.625 12.0273 9.45312 11.6602C9.28906 11.293 9.02344 11.0117 8.65625 10.8164C8.28906 10.6133 7.80469 10.5117 7.20312 10.5117H3.81641L3.83984 8.09766H8.05859L8.86719 9.04688C9.90625 9.03125 10.7422 9.21484 11.375 9.59766C12.0156 9.97266 12.4805 10.4609 12.7695 11.0625C13.0664 11.6641 13.2148 12.3086 13.2148 12.9961C13.2148 14.0898 12.9766 15.0117 12.5 15.7617C12.0234 16.5039 11.3242 17.0625 10.4023 17.4375C9.48828 17.8125 8.37109 18 7.05078 18ZM23.2044 15.1406V9.49219C23.2044 9.08594 23.138 8.73828 23.0052 8.44922C22.8723 8.15234 22.6653 7.92188 22.3841 7.75781C22.1106 7.59375 21.7552 7.51172 21.3177 7.51172C20.9427 7.51172 20.6184 7.57812 20.345 7.71094C20.0716 7.83594 19.8606 8.01953 19.7122 8.26172C19.5637 8.49609 19.4895 8.77344 19.4895 9.09375H16.1145C16.1145 8.55469 16.2395 8.04297 16.4895 7.55859C16.7395 7.07422 17.1028 6.64844 17.5794 6.28125C18.0559 5.90625 18.6223 5.61328 19.2786 5.40234C19.9427 5.19141 20.6848 5.08594 21.5052 5.08594C22.4895 5.08594 23.3645 5.25 24.1302 5.57812C24.8958 5.90625 25.4973 6.39844 25.9348 7.05469C26.3802 7.71094 26.6028 8.53125 26.6028 9.51562V14.9414C26.6028 15.6367 26.6458 16.207 26.7317 16.6523C26.8177 17.0898 26.9427 17.4727 27.1067 17.8008V18H23.6966C23.5325 17.6562 23.4075 17.2266 23.3216 16.7109C23.2434 16.1875 23.2044 15.6641 23.2044 15.1406ZM23.6497 10.2773L23.6731 12.1875H21.7864C21.3411 12.1875 20.9544 12.2383 20.6262 12.3398C20.2981 12.4414 20.0286 12.5859 19.8177 12.7734C19.6067 12.9531 19.4505 13.1641 19.3489 13.4062C19.2552 13.6484 19.2083 13.9141 19.2083 14.2031C19.2083 14.4922 19.2747 14.7539 19.4075 14.9883C19.5403 15.2148 19.7317 15.3945 19.9817 15.5273C20.2317 15.6523 20.5247 15.7148 20.8606 15.7148C21.3684 15.7148 21.8098 15.6133 22.1848 15.4102C22.5598 15.207 22.8489 14.957 23.052 14.6602C23.263 14.3633 23.3723 14.082 23.3802 13.8164L24.2708 15.2461C24.1458 15.5664 23.9739 15.8984 23.7552 16.2422C23.5442 16.5859 23.2747 16.9102 22.9466 17.2148C22.6184 17.5117 22.2239 17.7578 21.763 17.9531C21.302 18.1406 20.7552 18.2344 20.1223 18.2344C19.3177 18.2344 18.5872 18.0742 17.9309 17.7539C17.2825 17.4258 16.7669 16.9766 16.3841 16.4062C16.0091 15.8281 15.8216 15.1719 15.8216 14.4375C15.8216 13.7734 15.9466 13.1836 16.1966 12.668C16.4466 12.1523 16.8137 11.7188 17.2981 11.3672C17.7903 11.0078 18.4036 10.7383 19.138 10.5586C19.8723 10.3711 20.7239 10.2773 21.6927 10.2773H23.6497ZM33.2994 8.08594V18H29.9244V5.32031H33.1002L33.2994 8.08594ZM37.1197 5.23828L37.0611 8.36719C36.897 8.34375 36.6978 8.32422 36.4634 8.30859C36.2369 8.28516 36.0298 8.27344 35.8423 8.27344C35.3658 8.27344 34.9517 8.33594 34.6002 8.46094C34.2564 8.57812 33.9673 8.75391 33.733 8.98828C33.5064 9.22266 33.3345 9.50781 33.2173 9.84375C33.108 10.1797 33.0455 10.5625 33.0298 10.9922L32.3502 10.7812C32.3502 9.96094 32.4322 9.20703 32.5963 8.51953C32.7603 7.82422 32.9986 7.21875 33.3111 6.70312C33.6314 6.1875 34.022 5.78906 34.483 5.50781C34.9439 5.22656 35.4713 5.08594 36.065 5.08594C36.2525 5.08594 36.4439 5.10156 36.6392 5.13281C36.8345 5.15625 36.9947 5.19141 37.1197 5.23828ZM39.4334 0H42.8084V15.0938L42.4686 18H39.4334V0ZM50.8358 11.5312V11.7773C50.8358 12.7227 50.7342 13.5898 50.5311 14.3789C50.3358 15.168 50.0311 15.8516 49.617 16.4297C49.203 17 48.6873 17.4453 48.0702 17.7656C47.4608 18.0781 46.742 18.2344 45.9139 18.2344C45.1405 18.2344 44.4686 18.0781 43.8983 17.7656C43.3358 17.4531 42.8631 17.0117 42.4803 16.4414C42.0975 15.8711 41.7889 15.2031 41.5545 14.4375C41.3202 13.6719 41.1444 12.8359 41.0272 11.9297V11.3906C41.1444 10.4844 41.3202 9.64844 41.5545 8.88281C41.7889 8.11719 42.0975 7.44922 42.4803 6.87891C42.8631 6.30859 43.3358 5.86719 43.8983 5.55469C44.4608 5.24219 45.1248 5.08594 45.8905 5.08594C46.7264 5.08594 47.453 5.24609 48.0702 5.56641C48.6952 5.87891 49.2108 6.32422 49.617 6.90234C50.0311 7.47266 50.3358 8.15234 50.5311 8.94141C50.7342 9.72266 50.8358 10.5859 50.8358 11.5312ZM47.4608 11.7773V11.5312C47.4608 11.0156 47.4217 10.5312 47.3436 10.0781C47.2733 9.61719 47.1483 9.21484 46.9686 8.87109C46.7889 8.51953 46.5428 8.24219 46.2303 8.03906C45.9256 7.83594 45.5311 7.73438 45.0467 7.73438C44.5858 7.73438 44.1952 7.8125 43.8748 7.96875C43.5545 8.125 43.2889 8.34375 43.078 8.625C42.8748 8.90625 42.7225 9.24219 42.6209 9.63281C42.5194 10.0156 42.4569 10.4375 42.4334 10.8984V12.4336C42.4569 13.0508 42.5584 13.5977 42.7381 14.0742C42.9256 14.543 43.2069 14.9141 43.5819 15.1875C43.9647 15.4531 44.4608 15.5859 45.0702 15.5859C45.5467 15.5859 45.9412 15.4922 46.2537 15.3047C46.5662 15.1172 46.8084 14.8516 46.9803 14.5078C47.16 14.1641 47.285 13.7617 47.3553 13.3008C47.4256 12.832 47.4608 12.3242 47.4608 11.7773ZM59.4894 18.2344C58.505 18.2344 57.6222 18.0781 56.8409 17.7656C56.0597 17.4453 55.3956 17.0039 54.8488 16.4414C54.3097 15.8789 53.8956 15.2266 53.6066 14.4844C53.3175 13.7344 53.173 12.9375 53.173 12.0938V11.625C53.173 10.6641 53.3097 9.78516 53.5831 8.98828C53.8566 8.19141 54.2472 7.5 54.755 6.91406C55.2706 6.32812 55.8956 5.87891 56.63 5.56641C57.3644 5.24609 58.1925 5.08594 59.1144 5.08594C60.0128 5.08594 60.8097 5.23438 61.505 5.53125C62.2003 5.82812 62.7823 6.25 63.2511 6.79688C63.7277 7.34375 64.087 8 64.3292 8.76562C64.5714 9.52344 64.6925 10.3672 64.6925 11.2969V12.7031H54.6144V10.4531H61.3761V10.1953C61.3761 9.72656 61.2902 9.30859 61.1183 8.94141C60.9542 8.56641 60.7042 8.26953 60.3683 8.05078C60.0323 7.83203 59.6027 7.72266 59.0792 7.72266C58.6339 7.72266 58.2511 7.82031 57.9308 8.01562C57.6105 8.21094 57.3488 8.48438 57.1456 8.83594C56.9503 9.1875 56.8019 9.60156 56.7003 10.0781C56.6066 10.5469 56.5597 11.0625 56.5597 11.625V12.0938C56.5597 12.6016 56.63 13.0703 56.7706 13.5C56.9191 13.9297 57.1261 14.3008 57.3917 14.6133C57.6652 14.9258 57.9933 15.168 58.3761 15.3398C58.7667 15.5117 59.2081 15.5977 59.7003 15.5977C60.3097 15.5977 60.8761 15.4805 61.3995 15.2461C61.9308 15.0039 62.3878 14.6406 62.7706 14.1562L64.4113 15.9375C64.1456 16.3203 63.7823 16.6875 63.3214 17.0391C62.8683 17.3906 62.3214 17.6797 61.6808 17.9062C61.0402 18.125 60.3097 18.2344 59.4894 18.2344ZM70.7094 8.08594V18H67.3344V5.32031H70.5102L70.7094 8.08594ZM74.5297 5.23828L74.4711 8.36719C74.307 8.34375 74.1078 8.32422 73.8734 8.30859C73.6469 8.28516 73.4398 8.27344 73.2523 8.27344C72.7758 8.27344 72.3617 8.33594 72.0102 8.46094C71.6664 8.57812 71.3773 8.75391 71.143 8.98828C70.9164 9.22266 70.7445 9.50781 70.6273 9.84375C70.518 10.1797 70.4555 10.5625 70.4398 10.9922L69.7602 10.7812C69.7602 9.96094 69.8422 9.20703 70.0062 8.51953C70.1703 7.82422 70.4086 7.21875 70.7211 6.70312C71.0414 6.1875 71.432 5.78906 71.893 5.50781C72.3539 5.22656 72.8812 5.08594 73.475 5.08594C73.6625 5.08594 73.8539 5.10156 74.0492 5.13281C74.2445 5.15625 74.4047 5.19141 74.5297 5.23828ZM84.6833 0.9375V18H81.1794V0.9375H84.6833ZM89.9333 0.9375V3.69141H76.0114V0.9375H89.9333ZM96.0088 5.32031V18H92.622V5.32031H96.0088ZM92.4111 2.01562C92.4111 1.52344 92.583 1.11719 92.9267 0.796875C93.2705 0.476563 93.7314 0.316406 94.3095 0.316406C94.8798 0.316406 95.3369 0.476563 95.6806 0.796875C96.0322 1.11719 96.208 1.52344 96.208 2.01562C96.208 2.50781 96.0322 2.91406 95.6806 3.23438C95.3369 3.55469 94.8798 3.71484 94.3095 3.71484C93.7314 3.71484 93.2705 3.55469 92.9267 3.23438C92.583 2.91406 92.4111 2.50781 92.4111 2.01562ZM102.893 7.94531V18H99.5061V5.32031H102.682L102.893 7.94531ZM102.424 11.2148H101.487C101.487 10.332 101.592 9.51953 101.803 8.77734C102.022 8.02734 102.338 7.37891 102.752 6.83203C103.174 6.27734 103.694 5.84766 104.311 5.54297C104.928 5.23828 105.643 5.08594 106.455 5.08594C107.018 5.08594 107.533 5.17187 108.002 5.34375C108.471 5.50781 108.873 5.76953 109.209 6.12891C109.553 6.48047 109.819 6.94141 110.006 7.51172C110.194 8.07422 110.287 8.75 110.287 9.53906V18H106.912V9.91406C106.912 9.33594 106.834 8.89062 106.678 8.57812C106.522 8.26562 106.299 8.04688 106.01 7.92188C105.729 7.79688 105.389 7.73438 104.99 7.73438C104.553 7.73438 104.17 7.82422 103.842 8.00391C103.522 8.18359 103.256 8.43359 103.045 8.75391C102.834 9.06641 102.678 9.43359 102.576 9.85547C102.475 10.2773 102.424 10.7305 102.424 11.2148ZM109.971 10.8281L108.764 10.9805C108.764 10.1523 108.865 9.38281 109.069 8.67188C109.28 7.96094 109.588 7.33594 109.994 6.79688C110.408 6.25781 110.92 5.83984 111.53 5.54297C112.139 5.23828 112.842 5.08594 113.639 5.08594C114.248 5.08594 114.803 5.17578 115.303 5.35547C115.803 5.52734 116.229 5.80469 116.58 6.1875C116.94 6.5625 117.213 7.05469 117.401 7.66406C117.596 8.27344 117.694 9.01953 117.694 9.90234V18H114.307V9.90234C114.307 9.31641 114.229 8.87109 114.073 8.56641C113.924 8.25391 113.705 8.03906 113.416 7.92188C113.135 7.79688 112.799 7.73438 112.408 7.73438C112.002 7.73438 111.647 7.81641 111.342 7.98047C111.037 8.13672 110.783 8.35547 110.58 8.63672C110.377 8.91797 110.225 9.24609 110.123 9.62109C110.022 9.98828 109.971 10.3906 109.971 10.8281ZM126.863 18.2344C125.878 18.2344 124.996 18.0781 124.214 17.7656C123.433 17.4453 122.769 17.0039 122.222 16.4414C121.683 15.8789 121.269 15.2266 120.98 14.4844C120.691 13.7344 120.546 12.9375 120.546 12.0938V11.625C120.546 10.6641 120.683 9.78516 120.957 8.98828C121.23 8.19141 121.621 7.5 122.128 6.91406C122.644 6.32812 123.269 5.87891 124.003 5.56641C124.738 5.24609 125.566 5.08594 126.488 5.08594C127.386 5.08594 128.183 5.23438 128.878 5.53125C129.574 5.82812 130.156 6.25 130.625 6.79688C131.101 7.34375 131.46 8 131.703 8.76562C131.945 9.52344 132.066 10.3672 132.066 11.2969V12.7031H121.988V10.4531H128.75V10.1953C128.75 9.72656 128.664 9.30859 128.492 8.94141C128.328 8.56641 128.078 8.26953 127.742 8.05078C127.406 7.83203 126.976 7.72266 126.453 7.72266C126.007 7.72266 125.625 7.82031 125.304 8.01562C124.984 8.21094 124.722 8.48438 124.519 8.83594C124.324 9.1875 124.175 9.60156 124.074 10.0781C123.98 10.5469 123.933 11.0625 123.933 11.625V12.0938C123.933 12.6016 124.003 13.0703 124.144 13.5C124.293 13.9297 124.5 14.3008 124.765 14.6133C125.039 14.9258 125.367 15.168 125.75 15.3398C126.14 15.5117 126.582 15.5977 127.074 15.5977C127.683 15.5977 128.25 15.4805 128.773 15.2461C129.304 15.0039 129.761 14.6406 130.144 14.1562L131.785 15.9375C131.519 16.3203 131.156 16.6875 130.695 17.0391C130.242 17.3906 129.695 17.6797 129.054 17.9062C128.414 18.125 127.683 18.2344 126.863 18.2344Z" fill="black"/>
</svg>
